<svg width="120" height="60" viewBox="0 0 120 60" fill="none" xmlns="http://www.w3.org/2000/svg">
<path d="M78.117 36.52C77.087 37.79 76.074 38.477 74.547 38.477C72.59 38.477 71.147 37.377 71.147 35.335C71.147 31.678 75.233 31.421 77.877 31.421H78.907C78.993 31.078 78.993 30.821 78.993 30.477C78.993 29.377 77.808 29.035 76.778 29.035C75.508 29.035 74.306 29.378 73.208 29.893L73.638 27.593C74.823 27.163 76.11 26.906 77.38 26.906C79.595 26.906 81.637 27.764 81.637 30.306C81.637 31.748 80.537 36.091 80.281 38.134H77.895L78.117 36.52ZM75.303 36.348C77.433 36.348 78.118 34.906 78.53 33.121H77.5C76.144 33.121 73.843 33.379 73.843 35.251C73.86 36.006 74.547 36.351 75.303 36.351V36.348ZM4.06 27.234H6.2L6.715 24.934L9.788 23.904L9.01501 27.217H11.555L11.125 29.347H8.585L7.555 34.119C7.44379 34.4748 7.38583 34.8452 7.383 35.218C7.383 35.905 7.813 36.318 8.483 36.318C8.998 36.318 9.513 36.232 9.839 36.06L9.32401 38.275C8.80901 38.361 8.294 38.533 7.796 38.533C5.839 38.533 4.483 37.76 4.483 35.633C4.483 34.775 4.655 33.933 4.826 33.075L5.684 29.333H3.63L4.06 27.234ZM12.747 27.234H15.647L13.26 38.22H10.36L12.746 27.233M13.759 22.478H16.659L16.059 25.208H13.175L13.759 22.478ZM24.229 29.705C23.629 29.362 22.959 29.105 22.099 29.105C19.799 29.105 18.529 31.235 18.529 33.277C18.529 34.719 19.044 36.177 21.001 36.177C21.688 36.177 22.615 36.005 23.301 35.577L22.958 37.877C22.1 38.307 21.173 38.392 20.228 38.392C17.413 38.392 15.541 36.522 15.541 33.62C15.541 29.792 18.099 26.89 22.013 26.89C23.113 26.89 24.143 27.062 24.913 27.32L24.229 29.705ZM28.317 31.235L32.317 27.235H36.059L30.789 32.265L34.102 38.222H30.875L28.06 32.352H27.974L26.789 38.222H23.974L27.39 22.222H30.188L28.317 31.235ZM46.273 27.235H48.316L48.831 24.935L51.904 23.905L51.217 27.132H53.775L53.345 29.262H50.787L49.757 34.034C49.671 34.377 49.585 34.721 49.585 35.134C49.585 35.821 50.015 36.234 50.685 36.234C51.2 36.234 51.715 36.148 52.041 35.976L51.526 38.191C51.011 38.277 50.496 38.449 49.998 38.449C48.041 38.449 46.685 37.676 46.685 35.549C46.685 34.691 46.857 33.849 47.028 32.991L47.886 29.249H45.843L46.273 27.235Z" fill="#009CDE"/>
<path d="M45.346 31.165C45.346 28.35 43.561 26.993 40.831 26.993C37.261 26.993 34.617 30.306 34.617 33.723C34.617 36.95 36.747 38.495 39.887 38.495C41.072 38.495 42.273 38.237 43.372 37.895L43.715 35.595C42.615 36.11 41.5 36.368 40.315 36.368C38.53 36.368 37.415 35.681 37.242 33.982V33.552C37.242 32.779 37.414 32.024 37.672 31.337C38.187 29.981 39.028 28.951 40.659 28.951C41.844 28.951 42.444 29.638 42.444 30.821C42.444 31.079 42.444 31.336 42.358 31.594H38.444C38.186 32.452 38.186 33.036 38.101 33.551H44.831C45.261 32.778 45.346 32.006 45.346 31.165V31.165Z" fill="#009CDE"/>
<path d="M54.615 28.436L54.873 27.251H57.517L57.259 28.693C58.032 27.593 59.302 26.993 60.659 26.993C61.929 26.993 63.303 27.766 63.474 29.123H63.57C64.343 27.681 65.87 26.993 67.398 26.993C69.012 26.993 70.471 28.349 70.471 29.98C70.471 31.01 70.213 32.11 69.956 32.967L68.771 38.237H65.871L67.056 32.881C67.228 32.194 67.399 31.181 67.399 30.495C67.399 29.637 66.799 29.139 66.043 29.139C64.086 29.139 63.571 31.439 63.228 32.967L62.128 38.151H59.228L60.413 32.795C60.585 32.108 60.756 31.095 60.756 30.409C60.756 29.551 60.156 29.053 59.4 29.053C57.443 29.053 56.928 31.353 56.585 32.881L55.485 38.065H52.585L54.615 28.436Z" fill="#009CDE"/>
<path d="M100.229 31.172C100.229 28.357 98.444 27 95.714 27C92.144 27 89.5 30.313 89.5 33.73C89.5 36.957 91.63 38.502 94.77 38.502C95.955 38.502 97.156 38.244 98.255 37.902L98.598 35.602C97.498 36.117 96.383 36.375 95.198 36.375C93.413 36.375 92.298 35.688 92.125 33.989V33.559C92.125 32.786 92.297 32.031 92.555 31.344C93.07 29.988 93.911 28.958 95.542 28.958C96.727 28.958 97.327 29.645 97.327 30.828C97.327 31.086 97.327 31.343 97.241 31.601H93.327C93.069 32.459 93.069 33.043 92.984 33.558H99.714C100.144 32.785 100.229 32.013 100.229 31.172V31.172Z" fill="#009CDE"/>
<path d="M84.89 27.33H82.847L82.5 29.344H84.544L83.686 33.086C83.515 33.944 83.343 34.786 83.343 35.644C83.343 37.771 84.699 38.544 86.656 38.544C87.154 38.544 87.669 38.372 88.184 38.286L88.699 36.071C88.373 36.243 87.858 36.329 87.343 36.329C86.673 36.329 86.243 35.916 86.243 35.229C86.243 34.816 86.329 34.129 86.329 34.129L87.359 29.357H89.919L90.349 27.227H87.791L88.478 24L85.405 25.03L84.89 27.33Z" fill="#009CDE"/>
</svg>
