<?xml version="1.0" encoding="UTF-8"?>
<svg width="120" height="60" id="Layer_1" data-name="Layer 1" xmlns="http://www.w3.org/2000/svg" xmlns:xlink="http://www.w3.org/1999/xlink" viewBox="0 0 360.48 68.02">
  <defs>
    <style>
      .cls-1 {
        fill: url(#radial-gradient-5);
      }

      .cls-2 {
        fill: url(#radial-gradient-4);
      }

      .cls-3 {
        fill: #199bd7;
      }

      .cls-4 {
        fill: url(#radial-gradient);
      }

      .cls-5 {
        fill: url(#radial-gradient-2);
      }

      .cls-6 {
        fill: url(#radial-gradient-3);
      }
    </style>
    <radialGradient id="radial-gradient" cx="339.35" cy="34" fx="339.35" fy="34" r="28.3" gradientUnits="userSpaceOnUse">
      <stop offset="0" stop-color="#2b3990"/>
      <stop offset=".17" stop-color="#2a4598"/>
      <stop offset=".48" stop-color="#2966b0"/>
      <stop offset=".89" stop-color="#279bd6"/>
      <stop offset="1" stop-color="#27aae1"/>
    </radialGradient>
    <radialGradient id="radial-gradient-2" cx="336.73" cy="14.59" fx="336.73" fy="14.59" r="16.66" xlink:href="#radial-gradient"/>
    <radialGradient id="radial-gradient-3" cx="334.09" cy="19.41" fx="334.09" fy="19.41" r="15.25" gradientUnits="userSpaceOnUse">
      <stop offset="0" stop-color="#8359a5"/>
      <stop offset=".29" stop-color="#7f54a2"/>
      <stop offset=".63" stop-color="#76459c"/>
      <stop offset=".99" stop-color="#662d91"/>
      <stop offset="1" stop-color="#662d91"/>
    </radialGradient>
    <radialGradient id="radial-gradient-4" cx="344.6" cy="48.59" fx="344.6" fy="48.59" r="15.25" gradientUnits="userSpaceOnUse">
      <stop offset="0" stop-color="#9bcb3c"/>
      <stop offset=".14" stop-color="#95c73b"/>
      <stop offset=".3" stop-color="#87be3b"/>
      <stop offset=".48" stop-color="#6faf3a"/>
      <stop offset=".67" stop-color="#4d993a"/>
      <stop offset=".86" stop-color="#237e38"/>
      <stop offset="1" stop-color="#006838"/>
    </radialGradient>
    <radialGradient id="radial-gradient-5" cx="341.96" cy="53.42" fx="341.96" fy="53.42" r="16.66" xlink:href="#radial-gradient"/>
  </defs>
  <g id="eight">
    <path class="cls-4" d="m360.48,19.41c0,5.82-2.79,11.04-7.21,14.6-.41.33-.83.65-1.27.95-.22.14-.43.29-.65.43-3.2,2.03-7.04,3.28-11.17,3.42h-.02c-.27.01-.54.02-.81.02-.18,0-.37,0-.55.01-2.83.08-5.48.86-7.75,2.14-3.1,1.74-5.49,4.43-6.7,7.62-.58,1.5-.89,3.13-.89,4.81,0,7.81,6.67,14.19,15.07,14.58-11.3-.39-20.31-8.92-20.31-19.39,0-5.82,2.79-11.04,7.2-14.59.41-.34.84-.65,1.28-.96.21-.15.43-.29.65-.43,3.2-2.03,7.04-3.27,11.18-3.41.27-.01.54-.02.82-.02.18,0,.37,0,.55-.01,2.83-.08,5.48-.86,7.75-2.14,3.1-1.74,5.49-4.43,6.7-7.62.58-1.51.89-3.13.89-4.82,0-7.8-6.67-14.18-15.06-14.57,11.29.4,20.31,8.93,20.31,19.39Z"/>
    <path class="cls-5" d="m355.23,14.59c0,1.69-.31,3.31-.89,4.82-1.21,3.2-3.6,5.89-6.7,7.62-2.27,1.28-4.92,2.06-7.75,2.14,5.44-.25,9.8-4.26,10.08-9.26,0-.17.01-.34.01-.5s0-.34-.01-.5c-.09-2.61-.93-5.03-2.33-7.12-2.78-4.18-7.81-6.97-13.54-6.97-3.04,0-5.88.79-8.3,2.15-4.34,2.44-7.3,6.74-7.57,11.7.42-10.12,9.27-18.26,20.3-18.64.27-.01.54-.02.82-.02s.54,0,.81.02h.02c8.39.4,15.06,6.77,15.06,14.57Z"/>
    <path class="cls-6" d="m349.97,18.91c-.28-5-4.64-9.01-10.08-9.26-.18,0-.37-.01-.55-.01s-.37,0-.55.01c-5.63.27-10.1,4.54-10.1,9.77s4.47,9.5,10.1,9.77c.18,0,.37.01.55.01-.28,0-.55,0-.82.02-4.14.14-7.98,1.38-11.18,3.41-.22.14-.44.28-.65.43-.44.3-.87.62-1.28.96-4.23-3.4-6.96-8.33-7.19-13.84-.01-.25-.02-.5-.02-.75s0-.5.02-.75c.28-4.95,3.23-9.26,7.57-11.7,2.42-1.36,5.25-2.15,8.3-2.15,5.73,0,10.76,2.79,13.54,6.97,1.4,2.09,2.24,4.51,2.33,7.12Z"/>
    <path class="cls-2" d="m360.48,48.59c0,.25,0,.49-.02.74v.02c-.28,4.95-3.24,9.25-7.57,11.68-2.42,1.37-5.26,2.15-8.3,2.15-5.73,0-10.76-2.79-13.54-6.97-1.4-2.09-2.24-4.52-2.33-7.12.28,5,4.64,9.01,10.08,9.26.18,0,.37.01.55.01s.37,0,.55-.01c5.62-.27,10.09-4.53,10.09-9.77s-4.47-9.5-10.09-9.77c-.18,0-.37-.01-.55-.01.27,0,.54,0,.81-.02h.02c4.14-.14,7.98-1.39,11.17-3.42.22-.14.43-.28.65-.43.44-.3.86-.62,1.27-.95,4.23,3.4,6.96,8.32,7.19,13.83v.02c.01.25.02.49.02.74Z"/>
    <path class="cls-1" d="m360.46,49.35c-.42,10.11-9.28,18.25-20.29,18.63h-.02c-.27.01-.54.02-.81.02s-.55,0-.82-.02c-8.4-.39-15.07-6.77-15.07-14.58,0-1.69.31-3.31.89-4.81,1.21-3.2,3.6-5.89,6.7-7.62,2.27-1.28,4.92-2.06,7.75-2.14-5.45.25-9.81,4.26-10.08,9.26,0,.17-.01.34-.01.5s0,.34.01.5c.09,2.6.93,5.03,2.33,7.12,2.78,4.18,7.81,6.97,13.54,6.97,3.04,0,5.89-.79,8.3-2.15,4.33-2.43,7.3-6.73,7.57-11.68Z"/>
  </g>
  <g id="text">
    <path class="cls-3" d="m17.19,66.85V19.77h-6.09c-6.13,0-11.09-4.97-11.09-11.09h0s37.89,0,37.89,0c6.13,0,11.09,4.97,11.09,11.09h0s-17.19,0-17.19,0v47.07h-14.61Z"/>
    <path class="cls-3" d="m62.95,16.73h-3.79c-2.94,0-5.33-2.39-5.33-5.33h0c0-2.94,2.39-5.33,5.33-5.33h3.79c2.94,0,5.33,2.39,5.33,5.33h0c0,2.94-2.39,5.33-5.33,5.33Zm4.94,50.12h-13.67V22.98h13.67v43.87Z"/>
    <path class="cls-3" d="m99.88,68.02c-3.62,0-6.93-.46-9.94-1.37s-5.62-2.32-7.83-4.22c-2.19-1.9-3.89-4.29-5.12-7.17-1.22-2.88-1.84-6.27-1.84-10.18,0-4.19.66-7.76,1.99-10.7,1.33-2.94,3.12-5.36,5.39-7.27,2.19-1.82,4.76-3.17,7.71-4.04,2.96-.87,6.04-1.31,9.24-1.31,2.42,0,4.84.28,7.27.84,2.42.56,4.86,1.45,7.3,2.68v11.72h-1.76c-.55-.52-1.22-1.09-2.01-1.72-.79-.62-1.66-1.2-2.6-1.72-.99-.55-2.11-1.01-3.36-1.39-1.25-.38-2.64-.57-4.18-.57-3.49,0-6.19,1.22-8.11,3.65-1.91,2.44-2.87,5.71-2.87,9.82,0,4.4,1.02,7.68,3.07,9.84,2.04,2.16,4.76,3.24,8.14,3.24,1.72,0,3.23-.2,4.53-.59,1.3-.39,2.42-.86,3.36-1.41.91-.55,1.69-1.11,2.34-1.7.65-.59,1.21-1.11,1.68-1.58h1.76v11.72c-.78.34-1.69.73-2.71,1.17-1.03.44-2.08.81-3.14,1.09-1.33.36-2.57.64-3.73.84-1.16.2-2.69.29-4.59.29Z"/>
    <path class="cls-3" d="m164.45,66.85h-16.25l-11.88-19.1-2.11,2.85v16.25h-13.67V6.06h0c7.55,0,13.67,6.12,13.67,13.67v20.39l12.97-17.15h16.13l-15.35,18.91,16.48,24.96Z"/>
    <path class="cls-3" d="m191.21,68.02c-8.28,0-14.63-1.98-19.04-5.94-4.41-3.96-6.62-9.6-6.62-16.91s2.06-12.88,6.17-17.15c4.11-4.27,9.87-6.41,17.27-6.41,6.72,0,11.77,1.81,15.16,5.43,3.38,3.62,5.08,8.8,5.08,15.55v4.92h-29.96c.13,2.03.56,3.73,1.29,5.1.73,1.37,1.69,2.46,2.89,3.26,1.17.81,2.54,1.39,4.1,1.74s3.27.53,5.12.53c1.59,0,3.15-.18,4.69-.53,1.54-.35,2.94-.81,4.22-1.39,1.12-.49,2.15-1.03,3.11-1.6.95-.57,1.72-1.08,2.32-1.52h1.45v11.29c-1.12.44-2.14.85-3.07,1.23-.92.38-2.19.76-3.81,1.15-1.48.39-3.01.7-4.59.92-1.58.22-3.5.33-5.76.33Zm4.53-28.75c-.08-2.89-.75-5.09-2.01-6.6-1.26-1.51-3.2-2.27-5.8-2.27s-4.73.79-6.23,2.38c-1.5,1.59-2.32,3.75-2.48,6.48h16.52Z"/>
    <path class="cls-3" d="m233.05,67.7c-5.57,0-9.63-1.15-12.17-3.44-2.54-2.29-3.81-6.04-3.81-11.25v-20.51h-5.23v-9.53h5.23v-12.54h1.13c6.93,0,12.54,5.61,12.54,12.54h0s13.16,0,13.16,0h0c0,5.26-4.27,9.53-9.53,9.53h-3.63v15.55c0,1.54.01,2.88.04,4.02.03,1.15.23,2.17.62,3.09.36.91,1.01,1.63,1.93,2.17.92.53,2.27.8,4.04.8.73,0,1.69-.16,2.87-.47,1.18-.31,2.01-.6,2.48-.86h1.17v9.65c-1.48.39-3.06.7-4.73.92-1.67.22-3.71.33-6.13.33Z"/>
    <path class="cls-3" d="m309.69,66.85h-14.53V28.29l-10.59,24.88h-9.96l-10.59-24.88v38.55h-13.75V8.68h0s0,0,0,0c10.24,0,19.54,6.01,23.73,15.36l5.99,13.35,5.97-13.34c4.18-9.35,13.47-15.37,23.71-15.37h0v58.16Z"/>
  </g>
</svg>